<svg xmlns="http://www.w3.org/2000/svg" width="144" height="144" viewBox="0 0 144 144">
  <defs>
    <linearGradient id="grad" x1="0%" y1="0%" x2="100%" y2="100%">
      <stop offset="0%" stop-color="#7c3aed"/>
      <stop offset="50%" stop-color="#6366f1"/>
      <stop offset="100%" stop-color="#3b82f6"/>
    </linearGradient>
  </defs>
  <!-- 12x12 grid, 12px cells. Wave shape with scattered pixels above. -->
  <!-- Row 0 -->
  <rect x="24" y="0" width="12" height="12" fill="url(#grad)" opacity="0.15"/>
  <rect x="60" y="0" width="12" height="12" fill="url(#grad)" opacity="0.1"/>
  <rect x="108" y="0" width="12" height="12" fill="url(#grad)" opacity="0.12"/>

  <!-- Row 1 -->
  <rect x="0" y="12" width="12" height="12" fill="url(#grad)" opacity="0.1"/>
  <rect x="36" y="12" width="12" height="12" fill="url(#grad)" opacity="0.2"/>
  <rect x="72" y="12" width="12" height="12" fill="url(#grad)" opacity="0.12"/>
  <rect x="96" y="12" width="12" height="12" fill="url(#grad)" opacity="0.08"/>
  <rect x="132" y="12" width="12" height="12" fill="url(#grad)" opacity="0.1"/>

  <!-- Row 2 -->
  <rect x="12" y="24" width="12" height="12" fill="url(#grad)" opacity="0.18"/>
  <rect x="48" y="24" width="12" height="12" fill="url(#grad)" opacity="0.25"/>
  <rect x="60" y="24" width="12" height="12" fill="url(#grad)" opacity="0.15"/>
  <rect x="84" y="24" width="12" height="12" fill="url(#grad)" opacity="0.1"/>
  <rect x="120" y="24" width="12" height="12" fill="url(#grad)" opacity="0.12"/>

  <!-- Row 3 - wave crest 1 starts -->
  <rect x="0" y="36" width="12" height="12" fill="url(#grad)" opacity="0.3"/>
  <rect x="12" y="36" width="12" height="12" fill="url(#grad)" opacity="0.5"/>
  <rect x="24" y="36" width="12" height="12" fill="url(#grad)" opacity="0.7"/>
  <rect x="36" y="36" width="12" height="12" fill="url(#grad)" opacity="0.85"/>
  <rect x="48" y="36" width="12" height="12" fill="url(#grad)" opacity="0.6"/>
  <rect x="60" y="36" width="12" height="12" fill="url(#grad)" opacity="0.3"/>
  <rect x="72" y="36" width="12" height="12" fill="url(#grad)" opacity="0.15"/>
  <rect x="108" y="36" width="12" height="12" fill="url(#grad)" opacity="0.1"/>

  <!-- Row 4 -->
  <rect x="0" y="48" width="12" height="12" fill="url(#grad)" opacity="0.6"/>
  <rect x="12" y="48" width="12" height="12" fill="url(#grad)" opacity="0.85"/>
  <rect x="24" y="48" width="12" height="12" fill="url(#grad)" opacity="1"/>
  <rect x="36" y="48" width="12" height="12" fill="url(#grad)" opacity="1"/>
  <rect x="48" y="48" width="12" height="12" fill="url(#grad)" opacity="0.85"/>
  <rect x="60" y="48" width="12" height="12" fill="url(#grad)" opacity="0.5"/>
  <rect x="72" y="48" width="12" height="12" fill="url(#grad)" opacity="0.25"/>
  <rect x="84" y="48" width="12" height="12" fill="url(#grad)" opacity="0.12"/>
  <rect x="120" y="48" width="12" height="12" fill="url(#grad)" opacity="0.08"/>

  <!-- Row 5 -->
  <rect x="0" y="60" width="12" height="12" fill="url(#grad)" opacity="0.85"/>
  <rect x="12" y="60" width="12" height="12" fill="url(#grad)" opacity="1"/>
  <rect x="24" y="60" width="12" height="12" fill="url(#grad)" opacity="1"/>
  <rect x="36" y="60" width="12" height="12" fill="url(#grad)" opacity="1"/>
  <rect x="48" y="60" width="12" height="12" fill="url(#grad)" opacity="1"/>
  <rect x="60" y="60" width="12" height="12" fill="url(#grad)" opacity="0.7"/>
  <rect x="72" y="60" width="12" height="12" fill="url(#grad)" opacity="0.4"/>
  <rect x="84" y="60" width="12" height="12" fill="url(#grad)" opacity="0.2"/>
  <rect x="96" y="60" width="12" height="12" fill="url(#grad)" opacity="0.1"/>

  <!-- Row 6 - trough then wave crest 2 starts -->
  <rect x="0" y="72" width="12" height="12" fill="url(#grad)" opacity="1"/>
  <rect x="12" y="72" width="12" height="12" fill="url(#grad)" opacity="1"/>
  <rect x="24" y="72" width="12" height="12" fill="url(#grad)" opacity="1"/>
  <rect x="36" y="72" width="12" height="12" fill="url(#grad)" opacity="1"/>
  <rect x="48" y="72" width="12" height="12" fill="url(#grad)" opacity="1"/>
  <rect x="60" y="72" width="12" height="12" fill="url(#grad)" opacity="0.85"/>
  <rect x="72" y="72" width="12" height="12" fill="url(#grad)" opacity="0.55"/>
  <rect x="84" y="72" width="12" height="12" fill="url(#grad)" opacity="0.7"/>
  <rect x="96" y="72" width="12" height="12" fill="url(#grad)" opacity="0.85"/>
  <rect x="108" y="72" width="12" height="12" fill="url(#grad)" opacity="0.5"/>
  <rect x="120" y="72" width="12" height="12" fill="url(#grad)" opacity="0.2"/>

  <!-- Row 7 -->
  <rect x="0" y="84" width="12" height="12" fill="url(#grad)" opacity="1"/>
  <rect x="12" y="84" width="12" height="12" fill="url(#grad)" opacity="1"/>
  <rect x="24" y="84" width="12" height="12" fill="url(#grad)" opacity="1"/>
  <rect x="36" y="84" width="12" height="12" fill="url(#grad)" opacity="1"/>
  <rect x="48" y="84" width="12" height="12" fill="url(#grad)" opacity="1"/>
  <rect x="60" y="84" width="12" height="12" fill="url(#grad)" opacity="1"/>
  <rect x="72" y="84" width="12" height="12" fill="url(#grad)" opacity="0.8"/>
  <rect x="84" y="84" width="12" height="12" fill="url(#grad)" opacity="1"/>
  <rect x="96" y="84" width="12" height="12" fill="url(#grad)" opacity="1"/>
  <rect x="108" y="84" width="12" height="12" fill="url(#grad)" opacity="0.85"/>
  <rect x="120" y="84" width="12" height="12" fill="url(#grad)" opacity="0.45"/>
  <rect x="132" y="84" width="12" height="12" fill="url(#grad)" opacity="0.15"/>

  <!-- Row 8 -->
  <rect x="0" y="96" width="12" height="12" fill="url(#grad)" opacity="1"/>
  <rect x="12" y="96" width="12" height="12" fill="url(#grad)" opacity="1"/>
  <rect x="24" y="96" width="12" height="12" fill="url(#grad)" opacity="1"/>
  <rect x="36" y="96" width="12" height="12" fill="url(#grad)" opacity="1"/>
  <rect x="48" y="96" width="12" height="12" fill="url(#grad)" opacity="1"/>
  <rect x="60" y="96" width="12" height="12" fill="url(#grad)" opacity="1"/>
  <rect x="72" y="96" width="12" height="12" fill="url(#grad)" opacity="1"/>
  <rect x="84" y="96" width="12" height="12" fill="url(#grad)" opacity="1"/>
  <rect x="96" y="96" width="12" height="12" fill="url(#grad)" opacity="1"/>
  <rect x="108" y="96" width="12" height="12" fill="url(#grad)" opacity="1"/>
  <rect x="120" y="96" width="12" height="12" fill="url(#grad)" opacity="0.7"/>
  <rect x="132" y="96" width="12" height="12" fill="url(#grad)" opacity="0.3"/>

  <!-- Row 9 -->
  <rect x="0" y="108" width="12" height="12" fill="url(#grad)" opacity="1"/>
  <rect x="12" y="108" width="12" height="12" fill="url(#grad)" opacity="1"/>
  <rect x="24" y="108" width="12" height="12" fill="url(#grad)" opacity="1"/>
  <rect x="36" y="108" width="12" height="12" fill="url(#grad)" opacity="1"/>
  <rect x="48" y="108" width="12" height="12" fill="url(#grad)" opacity="1"/>
  <rect x="60" y="108" width="12" height="12" fill="url(#grad)" opacity="1"/>
  <rect x="72" y="108" width="12" height="12" fill="url(#grad)" opacity="1"/>
  <rect x="84" y="108" width="12" height="12" fill="url(#grad)" opacity="1"/>
  <rect x="96" y="108" width="12" height="12" fill="url(#grad)" opacity="1"/>
  <rect x="108" y="108" width="12" height="12" fill="url(#grad)" opacity="1"/>
  <rect x="120" y="108" width="12" height="12" fill="url(#grad)" opacity="0.9"/>
  <rect x="132" y="108" width="12" height="12" fill="url(#grad)" opacity="0.55"/>

  <!-- Row 10 -->
  <rect x="0" y="120" width="12" height="12" fill="url(#grad)" opacity="1"/>
  <rect x="12" y="120" width="12" height="12" fill="url(#grad)" opacity="1"/>
  <rect x="24" y="120" width="12" height="12" fill="url(#grad)" opacity="1"/>
  <rect x="36" y="120" width="12" height="12" fill="url(#grad)" opacity="1"/>
  <rect x="48" y="120" width="12" height="12" fill="url(#grad)" opacity="1"/>
  <rect x="60" y="120" width="12" height="12" fill="url(#grad)" opacity="1"/>
  <rect x="72" y="120" width="12" height="12" fill="url(#grad)" opacity="1"/>
  <rect x="84" y="120" width="12" height="12" fill="url(#grad)" opacity="1"/>
  <rect x="96" y="120" width="12" height="12" fill="url(#grad)" opacity="1"/>
  <rect x="108" y="120" width="12" height="12" fill="url(#grad)" opacity="1"/>
  <rect x="120" y="120" width="12" height="12" fill="url(#grad)" opacity="1"/>
  <rect x="132" y="120" width="12" height="12" fill="url(#grad)" opacity="0.75"/>

  <!-- Row 11 (bottom) -->
  <rect x="0" y="132" width="12" height="12" fill="url(#grad)" opacity="1"/>
  <rect x="12" y="132" width="12" height="12" fill="url(#grad)" opacity="1"/>
  <rect x="24" y="132" width="12" height="12" fill="url(#grad)" opacity="1"/>
  <rect x="36" y="132" width="12" height="12" fill="url(#grad)" opacity="1"/>
  <rect x="48" y="132" width="12" height="12" fill="url(#grad)" opacity="1"/>
  <rect x="60" y="132" width="12" height="12" fill="url(#grad)" opacity="1"/>
  <rect x="72" y="132" width="12" height="12" fill="url(#grad)" opacity="1"/>
  <rect x="84" y="132" width="12" height="12" fill="url(#grad)" opacity="1"/>
  <rect x="96" y="132" width="12" height="12" fill="url(#grad)" opacity="1"/>
  <rect x="108" y="132" width="12" height="12" fill="url(#grad)" opacity="1"/>
  <rect x="120" y="132" width="12" height="12" fill="url(#grad)" opacity="1"/>
  <rect x="132" y="132" width="12" height="12" fill="url(#grad)" opacity="0.9"/>
</svg>
